<svg width="25" height="24" viewBox="0 0 25 24" fill="none" xmlns="http://www.w3.org/2000/svg">
<path d="M6.30835 10.043V8.05046C6.30835 4.75288 7.3046 2.07296 12.2859 2.07296C17.2671 2.07296 18.2634 4.75288 18.2634 8.05046V10.043" stroke="#000000" stroke-width="1.49438" stroke-linecap="round" stroke-linejoin="round"/>
<path d="M12.2854 18.511C13.661 18.511 14.7761 17.3959 14.7761 16.0204C14.7761 14.6449 13.661 13.5298 12.2854 13.5298C10.9099 13.5298 9.7948 14.6449 9.7948 16.0204C9.7948 17.3959 10.9099 18.511 12.2854 18.511Z" stroke="#000000" stroke-width="1.49438" stroke-linecap="round" stroke-linejoin="round"/>
<path d="M17.2665 21.9977H7.30401C3.319 21.9977 2.32275 21.0015 2.32275 17.0165V15.024C2.32275 11.039 3.319 10.0427 7.30401 10.0427H17.2665C21.2515 10.0427 22.2478 11.039 22.2478 15.024V17.0165C22.2478 21.0015 21.2515 21.9977 17.2665 21.9977Z" stroke="#000000" stroke-width="1.49438" stroke-linecap="round" stroke-linejoin="round"/>
</svg>
